grf
version=1
nRows=8
nColumns=28
inDegrees=no
endheader
time	ground_force_1_vx	ground_force_1_vy	ground_force_1_vz	ground_force_1_px	ground_force_1_py	ground_force_1_pz	ground_moment_1_mx	ground_moment_1_my	ground_moment_1_mz	ground_force_2_vx	ground_force_2_vy	ground_force_2_vz	ground_force_2_px	ground_force_2_py	ground_force_2_pz	ground_moment_2_mx	ground_moment_2_my	ground_moment_2_mz	ground_force_3_vx	ground_force_3_vy	ground_force_3_vz	ground_force_3_px	ground_force_3_py	ground_force_3_pz	ground_moment_3_mx	ground_moment_3_my	ground_moment_3_mz
      0.91000000	      8.57790656	    -23.63133670	    -89.48191959	    581.92918069	   -917.58122412	      1.26691706	      0.55540044	      2.00833518	   1100.45953734	      0.97679568	     -5.83283925	      2.20588669	    146.03207002	  -1671.17681963	      0.19293513	      0.10184357	      1.31713660	  -1578.28977579	    -16.42839982	     17.66476061	   -400.96506013	    575.00022668	   -859.76896894	      1.59833796	     -0.55995748	      4.11340676	   2002.98289076
      0.92000000	      9.44651663	    -14.92540235	    -73.17304958	    582.55163855	   -916.18186272	      1.26404908	      0.42257108	      1.52802247	    837.27403625	      1.12505938	     -5.65663857	      1.46941709	    -45.35193501	  -1446.17244279	      0.36835936	      0.15169488	      1.96186045	  -2350.84523026	    -18.87607160	     12.91431604	   -427.89169554	    574.76712671	   -856.98038907	      1.59254606	     -0.66757813	      4.90398021	   2387.94483980
      0.93000000	      9.96490341	     -8.10605181	    -59.59370292	    584.59434263	   -911.98890393	      1.25536599	      0.35647304	      1.28901111	    706.30868225	      1.09087427	     -5.92433996	      1.58110738	     95.24810555	  -1524.32376027	      0.31221203	      0.11092250	      1.43455382	  -1718.98771694	    -20.48136504	     11.97400592	   -458.81952771	    573.87752326	   -855.80230611	      1.58987800	     -0.83192283	      6.11124434	   2975.81021560
      0.94000000	      9.38242729	     -3.51550027	    -48.26106139	    586.39984421	   -912.78577727	      1.25590905	      0.29539510	      1.06815249	    585.29004916	      0.92420702	     -5.68951304	      1.59411686	     52.13832314	  -1613.21333847	      0.23524887	      0.13124324	      1.69736064	  -2033.90213437	    -21.70996294	     12.38572742	   -495.03053394	    572.66656971	   -853.61156476	      1.58504047	     -0.94371272	      6.93244470	   3375.68563937
      0.95000000	      8.90897275	      0.58767174	    -40.05238276	    586.81629909	   -912.98999315	      1.25607156	      0.21997427	      0.79542981	    435.85270432	      0.96008427	     -5.53323460	      2.05735120	     71.40383071	  -1715.76136232	      0.15091221	      0.12665715	      1.63804912	  -1962.83072625	    -22.04278808	     14.62467230	   -535.25387721	    571.96197386	   -851.96275753	      1.58145743	     -1.06242870	      7.80452363	   3800.33588016
      0.96000000	      8.63410998	      3.51478500	    -33.04970018	    591.12462486	   -908.42604450	      1.24556796	      0.16626540	      0.60121782	    329.43499350	      0.85686398	     -5.75765939	      2.40587759	    149.36612966	  -1749.09210352	      0.12812731	      0.10730656	      1.38778904	  -1662.95071714	    -23.20096794	     18.86804181	   -579.69835518	    570.33953522	   -850.43703907	      1.57787058	     -1.22672194	      9.01140978	   4388.01719904
      0.97000000	      8.89747056	      5.13210022	    -29.21905798	    587.78459064	   -914.72145808	      1.25874278	      0.13858619	      0.50112945	    274.59195389	      1.01280291	     -5.52642009	      2.02304988	     28.88229572	  -1604.23378565	      0.24124195	      0.13384006	      1.73094523	  -2074.14565907	    -25.16464566	     25.29792630	   -630.71483503	    569.58950119	   -848.68376987	      1.57406032	     -1.35415282	      9.94750771	   4843.84086181
      0.98000000	      9.73018830	      6.85699729	    -24.88317951	    587.82453956	   -911.61944459	      1.25306146	      0.17486222	      0.63230406	    346.46857624	      0.98508054	     -5.49413275	      1.87636379	     77.99182905	  -1702.86254895	      0.16210182	      0.12119138	      1.56736056	  -1878.12650508	    -27.01589676	     32.25873553	   -686.58808364	    568.48695209	   -847.54664795	      1.57141685	     -1.50537256	     11.05835681	   5384.75788543
